<svg xmlns="http://www.w3.org/2000/svg" viewBox="0 -0.5 22 22" shape-rendering="crispEdges">
<metadata>Made with Pixels to Svg https://codepen.io/shshaw/pen/XbxvNj</metadata>
<path stroke="rgba(0,0,0,0.27058823529411763)" d="M11 0h1M9 1h1M12 1h1M8 2h1M13 2h1M14 3h1M7 4h1M14 4h1M7 5h1M14 5h1M6 6h1M15 6h1M6 7h1M15 7h1M6 8h1M15 8h1M6 9h1M15 9h2M5 10h1M16 10h1M4 11h1M4 14h1M17 15h1" />
<path stroke="#050914" d="M10 1h2M9 2h1M12 2h1M8 3h1M13 3h1M8 4h2M12 4h2M8 5h1M10 5h2M13 5h1M7 6h1M14 6h1M7 7h1M10 7h2M14 7h1M7 8h1M9 8h1M12 8h1M14 8h1M7 9h1M10 9h2M14 9h1M6 10h2M14 10h2M5 11h1M8 11h1M13 11h1M16 11h1M5 12h1M8 12h1M13 12h1M16 12h1M5 13h1M8 13h1M13 13h1M16 13h1M5 14h1M7 14h1M9 14h4M14 14h1M16 14h1M5 15h2M8 15h1M13 15h1M15 15h2M8 16h6" />
<path stroke="#94152a" d="M10 2h2M12 3h1M6 11h2M14 11h2M7 12h1M15 12h1M7 13h1M15 13h1M12 15h1" />
<path stroke="#d41e3c" d="M9 3h3M10 4h2M6 12h1M14 12h1M6 13h1M14 13h1M6 14h1M15 14h1M9 15h3" />
<path stroke="#95a0ab" d="M9 5h1M8 6h5M8 7h2M12 7h1M8 8h1M8 9h2M12 9h1M8 10h5M9 11h4M9 12h4M9 13h4" />
<path stroke="#7f8184" d="M12 5h1" />
<path stroke="#687077" d="M13 6h1M13 7h1M13 8h1M13 9h1M13 10h1" />
<path stroke="#78d7ff" d="M10 8h2" />
<path stroke="#ff7e00" d="M8 14h1M7 15h1M14 15h1M16 16h1M6 17h1M10 17h1M9 18h1M6 19h1M9 19h1M16 19h1M5 20h1" />
<path stroke="#ed1c24" d="M13 14h1M14 16h1M15 17h1M6 18h1M15 18h1M5 19h1M9 20h1M16 20h1M13 21h1" />
<path stroke="#000000" d="M6 16h1M17 16h1M5 17h1M11 17h2M17 17h1M5 18h1M8 18h1M10 18h1M12 18h1M14 18h1M18 18h1M4 19h1M7 19h2M10 19h1M12 19h2M15 19h1M17 19h1M4 20h1M6 20h1M8 20h1M10 20h1M12 20h1M15 20h1M17 20h1M5 21h1M9 21h1M16 21h1" />
<path stroke="#ffc20e" d="M7 16h1M15 16h1M7 17h3M13 17h2M16 17h1M7 18h1M13 18h1M16 18h2" />
<path stroke="#b4b4b4" d="M3 20h1M11 20h1M14 20h1M18 20h1M2 21h2M7 21h1M10 21h2M14 21h2M18 21h2" />
</svg>